<svg id="Layer_1" data-name="Layer 1" xmlns="http://www.w3.org/2000/svg" viewBox="0 0 140.66 24.39"><defs><style>.cls-1{fill:#048577;}.cls-2{fill:#fcb715;}.cls-3{fill:#fff;}.cls-4{fill:#606161;}</style></defs><path class="cls-1" d="M61.3,13.38V.31H66a4.63,4.63,0,0,1,3.41,1.25,3.87,3.87,0,0,1,1.12,2,17.13,17.13,0,0,1,.22,3.15A17.67,17.67,0,0,1,70.47,10a3.92,3.92,0,0,1-1.11,2.09A4.61,4.61,0,0,1,66,13.38Zm4.45-2.15a2.55,2.55,0,0,0,2-.78,2.27,2.27,0,0,0,.51-1.25,18.8,18.8,0,0,0,.12-2.45,16.83,16.83,0,0,0-.12-2.34,2.14,2.14,0,0,0-.51-1.17,2.56,2.56,0,0,0-2-.79H63.64v8.78Z" transform="translate(-1.08 -0.31)"/><polygon class="cls-1" points="71.33 13.07 71.33 0 79.83 0 79.83 2.15 73.67 2.15 73.67 5.42 78.93 5.42 78.93 7.55 73.67 7.55 73.67 10.93 79.83 10.93 79.83 13.07 71.33 13.07"/><polygon class="cls-1" points="89.55 13.07 85.65 7.11 84.03 4.66 84.03 13.07 81.69 13.07 81.69 0 83.77 0 87.44 5.57 89.29 8.39 89.29 0 91.63 0 91.63 13.07 89.55 13.07"/><polygon class="cls-1" points="96.87 13.07 96.87 2.15 93.39 2.15 93.39 0 102.68 0 102.68 2.15 99.21 2.15 99.21 13.07 96.87 13.07"/><path class="cls-1" d="M51.86,13.38,49.19,8.05H47.13v5.33H44.8V.31h5.11a4.16,4.16,0,0,1,3,1.09,3.77,3.77,0,0,1,1.14,2.81,3.62,3.62,0,0,1-.75,2.31A3.67,3.67,0,0,1,51.61,7.7l3,5.68ZM49.77,6a2.08,2.08,0,0,0,1.42-.47,1.61,1.61,0,0,0,.51-1.29,1.65,1.65,0,0,0-.52-1.3,2,2,0,0,0-1.41-.48H47.13V6Z" transform="translate(-1.08 -0.31)"/><rect class="cls-1" x="55.35" width="2.34" height="13.07"/><polygon class="cls-1" points="36.13 13.07 36.13 2.15 32.65 2.15 32.65 0 41.95 0 41.95 2.15 38.47 2.15 38.47 13.07 36.13 13.07"/><path class="cls-2" d="M106.76,11.86c-.08.84-.52,1.36-1.37,1.29a1.44,1.44,0,0,1-1.52-1.47,1.39,1.39,0,0,1,1.51-1.44C106.35,10.33,106.65,11,106.76,11.86Z" transform="translate(-1.08 -0.31)"/><path class="cls-2" d="M123.17,4.46a3.63,3.63,0,0,0-3.86-1.76c-1.51.24-2.88,1-4.07,3.65-.67,1.52-.84,3.06-1.77,4.42s-2.64-.33-2.78-1.85c-.39-4,.78-5.36,2-4.54,0,0,0,0,0,0a.48.48,0,0,0,.88-.28,1.56,1.56,0,0,0-1.08-1.61,3.34,3.34,0,0,0-2.75.79c-2,2-2.12,6.59-.43,8.91,1.21,1.64,2.89,1.81,4.3.33a21.9,21.9,0,0,0,1.77-2.46h0A4.15,4.15,0,0,0,118,13.62a3.69,3.69,0,0,0,4.15-1.36A9.06,9.06,0,0,0,123.17,4.46Z" transform="translate(-1.08 -0.31)"/><path class="cls-3" d="M120.74,6.51A1.28,1.28,0,0,0,119.6,7a1.31,1.31,0,0,0-1-.73,1.24,1.24,0,0,0-1.42,1.19,3.09,3.09,0,0,0,1.15,2.3c.58.56,1.11,1,1.11,1a7,7,0,0,1,1.06-1.09c.71-.62,1.34-.86,1.42-1.76a1.26,1.26,0,0,0-1.16-1.46Z" transform="translate(-1.08 -0.31)"/><path class="cls-2" d="M139,11.73c-.23-.44-.7-1.27-.7-5.16a2.74,2.74,0,0,0-1.14-1.86,1.39,1.39,0,0,0-2.21.61c-.66,1.32-1.28,2.67-2.1,4.37,0-1.57,0-2.78,0-4-.06-1.37-.56-2.55-2-2.88s-2.59,2-2.67,2c-.77-4.51-6.6-1.43-6.6-1.43l1.23,1c3.2-1.82,2.65.5,2.65.5s-.7,4.27-.73,5.54a4.84,4.84,0,0,0,.37,2.25,1.47,1.47,0,0,0,1.51,1c.88-.1.76-.72.9-1.19.41-1.43.63-2.92,1-4.35.26-.87,1.3-3.26,1.75-3,.06.51.12,1.59.12,2.1a34.38,34.38,0,0,0,0,4.31c.08.6.53,1.53,1.37,1.57s1.06-.55,1.34-1c.73-1.26,1.3-2.62,2-4.14.64,4.68,2.54,5.21,3.13,5.25a5.7,5.7,0,0,0,1.47-.08.31.31,0,0,0,.13-.56C139.47,12.24,139.27,12.18,139,11.73Z" transform="translate(-1.08 -0.31)"/><path class="cls-2" d="M17.5,7c.05-.66.16-2.46-1-3s-1.93.66-2.45,1.69c-.67,1.36-1.31,2.74-2.15,4.49,0-1.61,0-2.85,0-4.09-.06-1.41-.57-2.62-2.08-3s-2.66,2-2.75,2.09C6.52,2,3.44,2.54,1.63,3.18A.82.82,0,0,0,1.4,4.6l.16.13c3.29-1.86,3.74,1,3.74,1A38.42,38.42,0,0,0,4.11,11c0,.77-.36,3.2,1.36,3.2.91,0,.78-.74.92-1.22.42-1.47.64-3,1.07-4.46.27-.9.76-2.95,1.4-2.91s.51,1.51.52,2a36.17,36.17,0,0,0,0,4.42c.08.62.55,1.58,1.41,1.62s1.09-.57,1.37-1.06c.75-1.3,2-3.4,2.74-5,.54,6.08,3.6,6.11,4.07,6a.33.33,0,0,0,.14-.58C18.65,12.77,17.05,12.1,17.5,7Z" transform="translate(-1.08 -0.31)"/><path class="cls-4" d="M141.51,14.79a.3.3,0,0,0,.13,0C141.83,14.7,141.74,14.73,141.51,14.79Z" transform="translate(-1.08 -0.31)"/><path class="cls-4" d="M117.21,16.16" transform="translate(-1.08 -0.31)"/><path class="cls-2" d="M34.9,15.71c-.32-.14-.64-.25-1-.37s-.65-.23-1-.33a19,19,0,0,0-2-.51c-.27-.05-.55-.09-.83-.12.1-.25.18-.46.25-.65h0c1.07-2.69,1.47-8.83.67-9.63a1.45,1.45,0,0,0-1.63,0A16.09,16.09,0,0,0,28,6.17c-.4.78-4.54,7.56-5.33,4.93-.86-2.87,1.2-7.32-.38-7.44-1.61.52-1.92,4.87-2,6.35,0,2.36,1.45,4,3.92,3.29,2.14-.72,3.46-2.67,4.66-4.45a10.52,10.52,0,0,1-2.53,6S15.38,20,19.46,24.18c3,2.34,7.49-3.82,9.7-7.92a9.17,9.17,0,0,1,1.6-.1c.64,0,1.29,0,1.95.1l2,.18,1.28.1a.16.16,0,0,0,.08-.31C35.69,16,35.3,15.87,34.9,15.71ZM22,21.83c-1.25-.3,1.49-2.76,3.2-3.9l.4-.23q.38-.21.78-.39C25.19,19.2,22.72,22.12,22,21.83Z" transform="translate(-1.08 -0.31)"/></svg>